<?xml version="1.0" encoding="UTF-8"?>
<svg xmlns="http://www.w3.org/2000/svg" version="1.1" viewBox="0 0 512 512">
  <defs>
    <style>
      .cls-1 {
        fill: #1c4050;
      }

      .cls-2 {
        fill: #5b7b79;
      }

      .cls-3 {
        fill: #bee2e9;
      }
    </style>
  </defs>
  <!-- Generator: Adobe Illustrator 28.7.2, SVG Export Plug-In . SVG Version: 1.2.0 Build 154)  -->
  <g>
    <g id="Ebene_1">
      <g>
        <path class="cls-2" d="M184.1,367.1l-118.4-119.4c-8.4-8.4-14.3-18.8-17.2-30.2-5.6-22.3.9-46.3,17.2-62.6,25.4-25.4,66.6-25.6,92.2-.5,3.1-6.6,7-12.8,11.5-18.7-34.2-29.9-86.3-28.6-118.9,4-21.6,21.6-30.4,53.4-22.8,83.1,3.8,15.2,11.7,29.1,22.8,40.2h0s133.6,134.8,133.6,134.8l56.8-57.3-15.2-15.3-41.6,42Z"/>
        <path class="cls-1" d="M328,367.1l-56.8-57.3-15.2-15.3-46.3-46.8h0c-2.5-2.6-4.9-5.3-7-8.2-2.2-3-4.1-6.2-5.7-9.5-1.9-4-3.5-8.2-4.6-12.5-5.6-22.3.9-46.3,17.2-62.6,25.6-25.6,67.2-25.6,92.8,0,25.6,25.6,25.6,67.2,0,92.8l-31.2,31.5,15.2,15.3,31.3-31.6h0c33.9-34,33.9-89.3,0-123.2-34-34-89.3-34-123.2,0-21.6,21.6-30.3,53.4-22.8,83.1,2,8.1,5.3,15.8,9.5,23,1.9,3.1,3.9,6.2,6.2,9.1,2.2,2.8,4.6,5.5,7.1,8.1h0s46.5,46.9,46.5,46.9l15.2,15.3,72,72.6v-30.6h0Z"/>
        <path class="cls-3" d="M461.5,139.7c-32.6-32.6-84.8-33.9-118.9-4,4.5,5.9,8.3,12.2,11.4,18.8,25.6-25.1,66.9-25,92.3.4,16.3,16.3,22.8,40.2,17.2,62.6-2.9,11.4-8.8,21.9-17.2,30.2l-118.3,119.4h0s0,30.6,0,30.6h0s133.6-134.8,133.6-134.8h0c11.1-11.1,19-25,22.8-40.1,7.5-29.6-1.2-61.5-22.8-83.1Z"/>
      </g>
    </g>
  </g>
</svg>